<?xml version="1.0" encoding="UTF-8"?>
<svg width="547px" height="1004px" viewBox="0 0 547 1004" version="1.1" xmlns="http://www.w3.org/2000/svg" xmlns:xlink="http://www.w3.org/1999/xlink">
    <!-- Generator: Sketch 52.4 (67378) - http://www.bohemiancoding.com/sketch -->
    <title>Group</title>
    <desc>Created with Sketch.</desc>
    <defs>
        <path d="M71.0059376,0 L363.994062,0 C401.555593,0 432,30.4473303 432,68.0060157 L432,817.993984 C432,855.550008 401.552705,886 363.994062,886 L71.0059376,886 C33.4444075,886 3,855.55267 3,817.993984 L3,68.0060157 C3,30.4499921 33.4472954,0 71.0059376,0 Z M31.9950744,109 C30.8932252,109 30,109.889963 30,111.003133 L30,773.996867 C30,775.103167 30.9004391,776 31.9950744,776 L403.004926,776 C404.106775,776 405,775.110037 405,773.996867 L405,111.003133 C405,109.896833 404.099561,109 403.004926,109 L31.9950744,109 Z" id="path-1"></path>
        <filter x="-21.0%" y="-10.2%" width="142.0%" height="120.3%" filterUnits="objectBoundingBox" id="filter-2">
            <feOffset dx="0" dy="0" in="SourceAlpha" result="shadowOffsetOuter1"></feOffset>
            <feGaussianBlur stdDeviation="30" in="shadowOffsetOuter1" result="shadowBlurOuter1"></feGaussianBlur>
            <feColorMatrix values="0 0 0 0 0   0 0 0 0 0   0 0 0 0 0  0 0 0 0.1 0" type="matrix" in="shadowBlurOuter1"></feColorMatrix>
        </filter>
        <path d="M74.9932737,8.5 L360.006726,8.5 C395.347843,8.5 424,37.158181 424,72.5098388 L424,813.490161 C424,848.849768 395.349235,877.5 360.006726,877.5 L74.9932737,877.5 C39.6521567,877.5 11,848.841819 11,813.490161 L11,72.5098388 C11,37.1502321 39.6507645,8.5 74.9932737,8.5 Z M31.9950744,109 C30.8932252,109 30,109.889963 30,111.003133 L30,773.996867 C30,775.103167 30.9004391,776 31.9950744,776 L403.004926,776 C404.106775,776 405,775.110037 405,773.996867 L405,111.003133 C405,109.896833 404.099561,109 403.004926,109 L31.9950744,109 Z" id="path-3"></path>
    </defs>
    <g id="Page-1" stroke="none" stroke-width="1" fill="none" fill-rule="evenodd">
        <g id="Group" transform="translate(56.000000, 59.000000)">
            <rect id="Mute-Switch" fill="#777777" x="1" y="112" width="4" height="36" rx="2"></rect>
            <g id="Volume-Switches" transform="translate(0.000000, 188.000000)" fill="#777777">
                <rect id="Volume-Up" x="0" y="0" width="6" height="66" rx="3"></rect>
                <rect id="Volume-Down" x="0" y="81" width="6" height="66" rx="3"></rect>
            </g>
            <rect id="Power-Button" fill="#777777" x="429" y="189" width="6" height="66" rx="3"></rect>
            <g id="Combined-Shape">
                <use fill="black" fill-opacity="1" filter="url(#filter-2)" xlink:href="#path-1"></use>
                <use fill="#555555" fill-rule="evenodd" xlink:href="#path-1"></use>
            </g>
            <g id="Combined-Shape">
                <use fill="#1A1A1A" fill-rule="evenodd" xlink:href="#path-3"></use>
                <path stroke="#222222" stroke-width="4" d="M74.9932737,6.5 L360.006726,6.5 C396.453003,6.5 426,36.0542015 426,72.5098388 L426,813.490161 C426,849.951515 396.456627,879.5 360.006726,879.5 L74.9932737,879.5 C38.5469972,879.5 9,849.945798 9,813.490161 L9,72.5098388 C9,36.0484854 38.5433727,6.5 74.9932737,6.5 Z M31.9995383,111 C31.9998247,111.000645 32,111.001642 32,111.003133 L32,773.996867 C32,773.996789 32.0032057,774 31.9950744,774 L403.000458,774 C403.000175,773.999355 403,773.998358 403,773.996867 L403,111.003133 C403,111.003211 402.996794,111 403.004926,111 L31.9995396,111 Z M403.000458,774 L403.004926,774 C403.004065,774 403.001514,774.002371 403.000462,774 Z"></path>
                <path stroke="#000000" stroke-width="4" d="M74.9932737,10.5 C40.7526667,10.5 13,38.2574695 13,72.5098388 L13,813.490161 C13,847.736878 40.7563545,875.5 74.9932737,875.5 L360.006726,875.5 C394.247333,875.5 422,847.742531 422,813.490161 L422,72.5098388 C422,38.2631223 394.243645,10.5 360.006726,10.5 L74.9932737,10.5 Z M31.9950744,107 L403.004926,107 C405.20731,107 407,108.795446 407,111.003133 L407,773.996867 C407,776.211491 405.214457,778 403.004926,778 L31.9950744,778 C29.7926896,778 28,776.204554 28,773.996867 L28,111.003133 C28,108.788509 29.7855434,107 31.9950744,107 Z" stroke-linejoin="square"></path>
            </g>
            <circle id="Home-button" stroke="#000000" stroke-width="4" fill="#1A1A1A" cx="217.5" cy="827.5" r="32.5"></circle>
            <circle id="Front-Camera" fill="#000000" cx="148.5" cy="57.5" r="7.5"></circle>
            <rect id="Front-Mic" fill="#000000" x="184" y="54" width="67" height="6" rx="3"></rect>
            <circle id="Light-Sensor" fill="#1A1A1A" cx="217.5" cy="27.5" r="4.5"></circle>
            <g id="Antenna" transform="translate(3.000000, 69.000000)" fill="#000000">
                <rect id="Antenna-Top-Left" x="0" y="0" width="8" height="12"></rect>
                <rect id="Antenna-Bottom-Left" x="0" y="735" width="8" height="12"></rect>
                <rect id="Antenna-Top-Right" x="421" y="0" width="8" height="12"></rect>
                <rect id="Antenna-Bottom-Right" x="421" y="735" width="8" height="12"></rect>
            </g>
        </g>
    </g>
</svg>